<?xml version="1.0" standalone="no"?>
<!DOCTYPE svg PUBLIC "-//W3C//DTD SVG 20010904//EN"
 "http://www.w3.org/TR/2001/REC-SVG-20010904/DTD/svg10.dtd">
<svg version="1.0" xmlns="http://www.w3.org/2000/svg"
 width="450.000000pt" height="144.000000pt" viewBox="0 0 450.000000 144.000000"
 preserveAspectRatio="xMidYMid meet">

<g transform="translate(0.000000,144.000000) scale(0.100000,-0.100000)"
fill="#000000" stroke="none">
<path d="M585 1401 c-84 -39 -107 -73 -296 -454 -238 -481 -269 -554 -269
-644 0 -165 128 -294 293 -294 105 0 191 40 297 137 l60 56 52 -47 c119 -107
203 -147 309 -147 159 0 283 120 296 287 6 76 -6 109 -161 435 -161 337 -282
565 -325 613 -67 74 -170 98 -256 58z m167 -87 c44 -23 70 -65 215 -359 197
-397 273 -568 280 -623 8 -73 -12 -130 -66 -183 -111 -112 -276 -76 -429 93
l-23 26 40 53 c134 177 174 354 105 465 -99 159 -349 138 -421 -35 -21 -49
-13 -170 16 -243 12 -31 51 -100 86 -152 l63 -95 -66 -62 c-84 -79 -156 -113
-237 -114 -75 0 -136 32 -180 93 -27 40 -30 51 -30 120 0 75 2 82 75 237 91
196 308 631 350 702 54 94 134 121 222 77z m7 -522 c69 -51 84 -115 52 -221
-21 -68 -113 -221 -137 -228 -16 -5 -106 139 -133 210 -33 91 -24 187 22 226
51 42 148 48 196 13z"/>
<path d="M2303 1152 c-49 -7 -81 -92 -50 -133 52 -68 157 -38 157 44 0 60 -46
98 -107 89z"/>
<path d="M1804 894 c-151 -54 -220 -240 -144 -391 41 -82 98 -126 188 -143 57
-10 122 2 164 31 l28 20 0 -20 c0 -19 6 -21 65 -21 l65 0 0 265 0 265 -61 0
c-52 0 -62 -3 -66 -20 -3 -11 -6 -20 -7 -20 0 0 -23 11 -50 25 -56 29 -118 32
-182 9z m204 -133 l32 -22 0 -103 c0 -95 -2 -104 -23 -124 -66 -63 -201 -41
-242 38 -23 45 -19 131 8 171 47 71 155 90 225 40z"/>
<path d="M2665 885 c-27 -13 -51 -25 -51 -25 -1 0 -4 9 -7 20 -4 17 -14 20
-66 20 l-61 0 0 -265 0 -265 65 0 65 0 2 187 3 187 34 23 c26 18 48 23 93 23
l59 0 -3 58 -3 57 -40 3 c-28 2 -56 -5 -90 -23z"/>
<path d="M3625 898 c-16 -6 -38 -18 -48 -26 -16 -14 -19 -14 -33 6 -12 18 -25
22 -65 22 l-49 0 0 -265 0 -265 60 0 60 0 2 187 3 187 34 23 c25 17 48 23 85
23 96 -1 106 -25 106 -251 l0 -169 66 0 66 0 -4 198 c-3 176 -5 201 -24 237
-42 80 -170 126 -259 93z"/>
<path d="M2260 635 l0 -265 65 0 65 0 0 265 0 265 -65 0 -65 0 0 -265z"/>
<path d="M3049 889 c-26 -4 -63 -15 -83 -24 -131 -62 -167 -283 -69 -414 74
-97 277 -112 366 -26 31 30 66 100 55 110 -2 3 -29 7 -60 11 -50 6 -57 4 -62
-13 -13 -40 -53 -66 -100 -66 -86 0 -130 55 -130 163 0 109 43 165 126 165 42
0 54 -4 73 -27 13 -15 25 -32 27 -39 3 -9 19 -10 63 -3 52 8 60 12 57 29 -5
28 -53 87 -90 108 -40 23 -115 35 -173 26z"/>
<path d="M4219 889 c-26 -4 -63 -15 -83 -24 -131 -62 -167 -283 -69 -414 74
-97 277 -112 366 -26 31 30 66 100 55 110 -2 3 -29 7 -60 11 -50 6 -57 4 -62
-13 -13 -40 -53 -66 -100 -66 -86 0 -130 55 -130 163 0 109 43 165 126 165 42
0 54 -4 73 -27 13 -15 25 -32 27 -39 3 -9 19 -10 63 -3 52 8 60 12 57 29 -5
28 -53 87 -90 108 -40 23 -115 35 -173 26z"/>
</g>
</svg>
